# xmcd CD database file
#
# Track frame offsets:
#	150
#	46282
#	70977
#	90292
#	95882
#	125180
#	153622
#	179060
#	207612
#	235885
#	258617
#
# Disc length: 3660 seconds
#
# Revision: 3
# Processed by: cddbd v1.5.2PL0 Copyright (c) Steve Scherf et al.
# Submitted via: CDex 1.70beta2
#
DISCID=aa0e4a0b
DTITLE=Nova Nova - La Chanson De Roland
DYEAR=1999
DGENRE=Electronic
TTITLE0=D.J.G.G
TTITLE1=La Chanson De Roland
TTITLE2=Bewildered
TTITLE3=Omnibus
TTITLE4=Elisa
TTITLE5=Plaid
TTITLE6=Middle
TTITLE7=Spleen
TTITLE8=Bewildered (Maas 1982 dub)
TTITLE9=Prayer
TTITLE10=Close Of Day
EXTD=YEAR: 1999
EXTT0=
EXTT1=
EXTT2=
EXTT3=
EXTT4=
EXTT5=
EXTT6=
EXTT7=
EXTT8=
EXTT9=
EXTT10=
PLAYORDER=
